<?xml version="1.0" encoding="UTF-8"?>
<svg xmlns="http://www.w3.org/2000/svg" xmlns:xlink="http://www.w3.org/1999/xlink" viewBox="0 0 48 48" width="48px" height="48px">
<g id="surface11651081">
<path style=" stroke:none;fill-rule:nonzero;fill:rgb(11.764706%,53.333336%,89.803922%);fill-opacity:1;" d="M 34 42 L 14 42 C 9.589844 42 6 38.410156 6 34 L 6 14 C 6 9.589844 9.589844 6 14 6 L 34 6 C 38.410156 6 42 9.589844 42 14 L 42 34 C 42 38.410156 38.410156 42 34 42 Z M 34 42 "/>
<path style=" stroke:none;fill-rule:nonzero;fill:rgb(100%,100%,100%);fill-opacity:1;" d="M 35.925781 17.488281 L 29.414062 24 L 35.925781 30.511719 C 35.96875 30.347656 36 30.179688 36 30 L 36 18 C 36 17.820312 35.96875 17.652344 35.925781 17.488281 Z M 26.6875 23.898438 L 34.511719 16.074219 C 34.347656 16.03125 34.179688 16 34 16 L 14 16 C 13.820312 16 13.652344 16.03125 13.488281 16.074219 L 21.3125 23.898438 C 22.796875 25.378906 25.203125 25.378906 26.6875 23.898438 Z M 24 27.007812 C 22.558594 27.007812 21.128906 26.46875 20.011719 25.402344 L 13.488281 31.925781 C 13.652344 31.96875 13.820312 32 14 32 L 34 32 C 34.179688 32 34.347656 31.96875 34.511719 31.925781 L 27.988281 25.402344 C 26.871094 26.46875 25.441406 27.007812 24 27.007812 Z M 12.074219 17.488281 C 12.03125 17.652344 12 17.820312 12 18 L 12 30 C 12 30.179688 12.03125 30.347656 12.074219 30.511719 L 18.585938 24 Z M 12.074219 17.488281 "/>
</g>
</svg>
